<svg class="c" viewBox="0 0 595 842" xmlns="http://www.w3.org/2000/svg"><path d="M141 114H163V115H141ZM307 130H335V131H307ZM396 146H421V147H396ZM439 228H460V229H439ZM302 260H324V261H302ZM438 260H461V261H438ZM28 342H53V343H28ZM67 342H86V343H67ZM27 358H53V359H27ZM441 456H459V457H441ZM28 473H52V474H28ZM469 473H490V474H469ZM96 571H115V572H96ZM294 751H316V752H294ZM311 489H329V490H311ZM22 38H23V100H22ZM24 38H25V100H24ZM169 38H170V100H169ZM290 38H291V100H290ZM465 38H466V100H465ZM570 38H571V100H570ZM23 153H24V215H23ZM169 153H170V215H169ZM290 153H291V215H290ZM465 153H466V215H465ZM570 153H571V215H570ZM23 267H24V329H23ZM169 267H170V329H169ZM290 267H291V329H290ZM465 267H466V329H465ZM570 267H571V329H570ZM23 381H24V443H23ZM169 381H170V443H169ZM290 381H291V443H290ZM465 381H466V443H465ZM569 381H570V443H569ZM571 381H572V443H571ZM22 496H23V557H22ZM24 496H25V557H24ZM169 496H170V557H169ZM290 496H291V557H290ZM465 496H466V557H465ZM570 496H571V557H570ZM23 594H24V656H23ZM169 594H170V656H169ZM290 594H291V656H290ZM465 594H466V656H465ZM570 594H571V656H570ZM23 676H24V737H23ZM169 676H170V737H169ZM290 676H291V737H290ZM465 676H466V737H465ZM570 676H571V737H570ZM23 757H24V819H23ZM169 757H170V819H169ZM290 757H291V819H290ZM465 757H466V819H465ZM569 757H570V819H569ZM571 757H572V819H571ZM252 558H286V559H252Z" stroke="#000" fill="none" stroke-linecap="butt"></path><text x="26 35 43 49 53 61" y="35" fill="#000" font-size="12.4" font-weight="bold">DôdiaG</text><text x="360 368 378 386 395 404 412 416 422 431 438 449 459 465 472 476 479 484 491 494 500 505 511 520 525 532 538 544 553 565" y="35" fill="#000" font-size="12.4">RANOARISOLOAndrianjakamananaW.</text><text x="38" y="51" fill="#000" font-size="12.4">s</text><text x="57 65 72 78 90" y="51" fill="#000" font-size="12.4">:-.s|</text><text x="109" y="51" fill="#000" font-size="12.4">s</text><text x="132" y="51" fill="#000" font-size="12.4">:</text><text x="151" y="51" fill="#000" font-size="12.4">f</text><text x="180 200" y="51" fill="#000" font-size="12.4">m:</text><text x="214 220 226" y="51" fill="#000" font-size="12.4">-.r</text><text x="242 253 267 278 281" y="51" fill="#000" font-size="12.4">|d:t,</text><text x="302 305 311 314 320 322" y="51" fill="#000" font-size="12.4">l,.,l,</text><text x="337 348 354 357 362 365 371 374 386" y="51" fill="#000" font-size="12.4">:si,.,l,|</text><text x="405" y="51" fill="#000" font-size="12.4">d</text><text x="429" y="51" fill="#000" font-size="12.4">:</text><text x="447" y="51" fill="#000" font-size="12.4">f</text><text x="476 494 506" y="51" fill="#000" font-size="12.4">m:-</text><text x="521 532 545" y="51" fill="#000" font-size="12.4">|-:</text><text x="37" y="66" fill="#000" font-size="12.4">d</text><text x="57 65 72 78 90" y="66" fill="#000" font-size="12.4">:-.d|</text><text x="109" y="66" fill="#000" font-size="12.4">d</text><text x="132" y="66" fill="#000" font-size="12.4">:</text><text x="151" y="66" fill="#000" font-size="12.4">r</text><text x="181" y="66" fill="#000" font-size="12.4">d</text><text x="200 213 220 225 229" y="66" fill="#000" font-size="12.4">:-.t,</text><text x="242 253 256 267 277 282" y="66" fill="#000" font-size="12.4">|l,:s,</text><text x="301 305 311 314 320 323" y="66" fill="#000" font-size="12.4">f,.,f,</text><text x="337 350 354 360 362 368 372" y="66" fill="#000" font-size="12.4">:f,.,f,</text><text x="386" y="66" fill="#000" font-size="12.4">|</text><text x="406 409" y="66" fill="#000" font-size="12.4">l,</text><text x="429" y="66" fill="#000" font-size="12.4">:</text><text x="447" y="66" fill="#000" font-size="12.4">r</text><text x="477" y="66" fill="#000" font-size="12.4">d</text><text x="494 506" y="66" fill="#000" font-size="12.4">:-</text><text x="521 532 545" y="66" fill="#000" font-size="12.4">|-:</text><text x="36" y="81" fill="#000" font-size="12.4">m</text><text x="57 64 71 77 90" y="81" fill="#000" font-size="12.4">:-.m|</text><text x="108" y="81" fill="#000" font-size="12.4">m</text><text x="132" y="81" fill="#000" font-size="12.4">:</text><text x="151" y="81" fill="#000" font-size="12.4">l</text><text x="181" y="81" fill="#000" font-size="12.4">s</text><text x="200" y="81" fill="#000" font-size="12.4">:</text><text x="214 220 226" y="81" fill="#000" font-size="12.4">-.f</text><text x="242 252 267 279" y="81" fill="#000" font-size="12.4">|m:r</text><text x="301 311 314 320" y="81" fill="#000" font-size="12.4">d.,d</text><text x="337 350 354 360 362 368" y="81" fill="#000" font-size="12.4">:t,.,d</text><text x="386" y="81" fill="#000" font-size="12.4">|</text><text x="404" y="81" fill="#000" font-size="12.4">m</text><text x="429" y="81" fill="#000" font-size="12.4">:</text><text x="448" y="81" fill="#000" font-size="12.4">l</text><text x="477" y="81" fill="#000" font-size="12.4">s</text><text x="494 506" y="81" fill="#000" font-size="12.4">:-</text><text x="521 532 545" y="81" fill="#000" font-size="12.4">|-:</text><text x="37" y="96" fill="#000" font-size="12.4">d</text><text x="57 65 72 78 90" y="96" fill="#000" font-size="12.4">:-.d|</text><text x="109" y="96" fill="#000" font-size="12.4">d</text><text x="132" y="96" fill="#000" font-size="12.4">:</text><text x="149" y="96" fill="#000" font-size="12.4">d</text><text x="181" y="96" fill="#000" font-size="12.4">d</text><text x="200 213 220 225" y="96" fill="#000" font-size="12.4">:-.d</text><text x="242 253 267 275 283" y="96" fill="#000" font-size="12.4">|d:m,</text><text x="301 305 311 314 320 323" y="96" fill="#000" font-size="12.4">f,.,f,</text><text x="337 348 357 362 365 371 375 386" y="96" fill="#000" font-size="12.4">:m,.,f,|</text><text x="406 409" y="96" fill="#000" font-size="12.4">l,</text><text x="429" y="96" fill="#000" font-size="12.4">:</text><text x="446 450" y="96" fill="#000" font-size="12.4">t,</text><text x="477" y="96" fill="#000" font-size="12.4">d</text><text x="494 506" y="96" fill="#000" font-size="12.4">:-</text><text x="521 532 545" y="96" fill="#000" font-size="12.4">|-:</text><text x="33 44" y="113" fill="#000" font-size="12.4">Mi</text><text x="64 68 74 79" y="113" fill="#000" font-size="12.4">tsan</text><text x="106 113" y="113" fill="#000" font-size="12.4">ga</text><text x="141 148 154 158" y="113" fill="#000" font-size="12.4">naIa</text><text x="175 181 187" y="113" fill="#000" font-size="12.4">nao</text><text x="225 229" y="113" fill="#000" font-size="12.4">ry</text><text x="250 259" y="113" fill="#000" font-size="12.4">mi</text><text x="274 280" y="113" fill="#000" font-size="12.4">no</text><text x="306 310 319" y="113" fill="#000" font-size="12.4">fai</text><text x="346 349 355 358 364 366 373" y="113" fill="#000" font-size="12.4">lain'ny</text><text x="404 408" y="113" fill="#000" font-size="12.4">ta</text><text x="444 451" y="113" fill="#000" font-size="12.4">ni</text><text x="470 477 482" y="113" fill="#000" font-size="12.4">nao</text><text x="34 41" y="129" fill="#000" font-size="12.4">Ra</text><text x="74 80" y="129" fill="#000" font-size="12.4">ha</text><text x="103 109 115" y="129" fill="#000" font-size="12.4">sen</text><text x="144 151 155" y="129" fill="#000" font-size="12.4">dra</text><text x="181" y="129" fill="#000" font-size="12.4">a</text><text x="222 229" y="129" fill="#000" font-size="12.4">dy</text><text x="249 258" y="129" fill="#000" font-size="12.4">ma</text><text x="276 280 293 304 307 310 316 322 328" y="129" fill="#000" font-size="12.4">fyMilahan</text><text x="350 357 360 366 370" y="129" fill="#000" font-size="12.4">drera</text><text x="403 409" y="129" fill="#000" font-size="12.4">ka</text><text x="442 449" y="129" fill="#000" font-size="12.4">ny</text><text x="475 479" y="129" fill="#000" font-size="12.4">fo</text><text x="34 40" y="145" fill="#000" font-size="12.4">Fa</text><text x="74 80" y="145" fill="#000" font-size="12.4">ha</text><text x="107 111" y="145" fill="#000" font-size="12.4">fa</text><text x="146 153" y="145" fill="#000" font-size="12.4">ha</text><text x="179 185" y="145" fill="#000" font-size="12.4">na</text><text x="222 229" y="145" fill="#000" font-size="12.4">do</text><text x="253 257" y="145" fill="#000" font-size="12.4">ri</text><text x="278" y="145" fill="#000" font-size="12.4">a</text><text x="301 305 311 314 320" y="145" fill="#000" font-size="12.4">tsisy</text><text x="349 353 359 367 374" y="145" fill="#000" font-size="12.4">tambi</text><text x="396 402 412" y="145" fill="#000" font-size="12.4">nyA</text><text x="443 452" y="145" fill="#000" font-size="12.4">mi</text><text x="470 477 482" y="145" fill="#000" font-size="12.4">nao</text><text x="39" y="165" fill="#000" font-size="12.4">r</text><text x="57 64 71 77 90" y="165" fill="#000" font-size="12.4">:-.m|</text><text x="110" y="165" fill="#000" font-size="12.4">f</text><text x="132" y="165" fill="#000" font-size="12.4">:</text><text x="151" y="165" fill="#000" font-size="12.4">r</text><text x="180 200" y="165" fill="#000" font-size="12.4">m:</text><text x="214 220 226" y="165" fill="#000" font-size="12.4">-.f</text><text x="242 253 267 277" y="165" fill="#000" font-size="12.4">|s:m</text><text x="312" y="165" fill="#000" font-size="12.4">r</text><text x="337" y="165" fill="#000" font-size="12.4">:</text><text x="353 360 365" y="165" fill="#000" font-size="12.4">-.d</text><text x="386" y="165" fill="#000" font-size="12.4">|</text><text x="405 409" y="165" fill="#000" font-size="12.4">t,</text><text x="429" y="165" fill="#000" font-size="12.4">:</text><text x="446 449" y="165" fill="#000" font-size="12.4">l,</text><text x="476 481 494 506" y="165" fill="#000" font-size="12.4">s,:-</text><text x="521 532 545" y="165" fill="#000" font-size="12.4">|-:</text><text x="37 40" y="180" fill="#000" font-size="12.4">t,</text><text x="57 65 72 78 90" y="180" fill="#000" font-size="12.4">:-.d|</text><text x="109 113" y="180" fill="#000" font-size="12.4">t,</text><text x="132" y="180" fill="#000" font-size="12.4">:</text><text x="149 153" y="180" fill="#000" font-size="12.4">t,</text><text x="181" y="180" fill="#000" font-size="12.4">d</text><text x="200 213 220 225 229" y="180" fill="#000" font-size="12.4">:-.t,</text><text x="242 253 267 278 280" y="180" fill="#000" font-size="12.4">|d:l,</text><text x="311 314" y="180" fill="#000" font-size="12.4">l,</text><text x="337" y="180" fill="#000" font-size="12.4">:</text><text x="354 361 366 369" y="180" fill="#000" font-size="12.4">-.l,</text><text x="386" y="180" fill="#000" font-size="12.4">|</text><text x="404 410" y="180" fill="#000" font-size="12.4">s,</text><text x="429" y="180" fill="#000" font-size="12.4">:</text><text x="444 448 451" y="180" fill="#000" font-size="12.4">fi,</text><text x="476 481 494 506" y="180" fill="#000" font-size="12.4">s,:-</text><text x="521 532 545" y="180" fill="#000" font-size="12.4">|-:</text><text x="38" y="195" fill="#000" font-size="12.4">s</text><text x="57 64 71 77 90" y="195" fill="#000" font-size="12.4">:-.m|</text><text x="110" y="195" fill="#000" font-size="12.4">r</text><text x="132" y="195" fill="#000" font-size="12.4">:</text><text x="150" y="195" fill="#000" font-size="12.4">s</text><text x="181" y="195" fill="#000" font-size="12.4">s</text><text x="200" y="195" fill="#000" font-size="12.4">:</text><text x="214 220 226" y="195" fill="#000" font-size="12.4">-.f</text><text x="242 252 267 278" y="195" fill="#000" font-size="12.4">|m:s</text><text x="310 314" y="195" fill="#000" font-size="12.4">fi</text><text x="337" y="195" fill="#000" font-size="12.4">:</text><text x="352 359 364" y="195" fill="#000" font-size="12.4">-.m</text><text x="386" y="195" fill="#000" font-size="12.4">|</text><text x="407" y="195" fill="#000" font-size="12.4">r</text><text x="429" y="195" fill="#000" font-size="12.4">:</text><text x="446" y="195" fill="#000" font-size="12.4">d</text><text x="477 481" y="195" fill="#000" font-size="12.4">t,</text><text x="494 506" y="195" fill="#000" font-size="12.4">:-</text><text x="521 532 545" y="195" fill="#000" font-size="12.4">|-:</text><text x="36 41" y="211" fill="#000" font-size="12.4">s,</text><text x="57 64 71 77 82 90" y="211" fill="#000" font-size="12.4">:-.s,|</text><text x="108 114" y="211" fill="#000" font-size="12.4">s,</text><text x="132" y="211" fill="#000" font-size="12.4">:</text><text x="148 154" y="211" fill="#000" font-size="12.4">s,</text><text x="181" y="211" fill="#000" font-size="12.4">d</text><text x="200 213 220 225" y="211" fill="#000" font-size="12.4">:-.d</text><text x="242 253 267 278 280" y="211" fill="#000" font-size="12.4">|d:l,</text><text x="312" y="211" fill="#000" font-size="12.4">r</text><text x="337" y="211" fill="#000" font-size="12.4">:</text><text x="355 361 367" y="211" fill="#000" font-size="12.4">-.r</text><text x="386" y="211" fill="#000" font-size="12.4">|</text><text x="405 409" y="211" fill="#000" font-size="12.4">r,</text><text x="429" y="211" fill="#000" font-size="12.4">:</text><text x="446 450" y="211" fill="#000" font-size="12.4">r,</text><text x="476 481 494 506" y="211" fill="#000" font-size="12.4">s,:-</text><text x="521 532 545" y="211" fill="#000" font-size="12.4">|-:</text><text x="33 41" y="227" fill="#000" font-size="12.4">Ny</text><text x="77 83" y="227" fill="#000" font-size="12.4">Fi</text><text x="102 109 116" y="227" fill="#000" font-size="12.4">noa</text><text x="146 153" y="227" fill="#000" font-size="12.4">na</text><text x="183" y="227" fill="#000" font-size="12.4">i</text><text x="229 233" y="227" fill="#000" font-size="12.4">fi</text><text x="252 258" y="227" fill="#000" font-size="12.4">ki</text><text x="276 280" y="227" fill="#000" font-size="12.4">ro</text><text x="308 317" y="227" fill="#000" font-size="12.4">mi</text><text x="363 370" y="227" fill="#000" font-size="12.4">vo</text><text x="402 409" y="227" fill="#000" font-size="12.4">no</text><text x="439 445 451 454" y="227" fill="#000" font-size="12.4">naia</text><text x="470 477 482" y="227" fill="#000" font-size="12.4">nao</text><text x="32 40 43" y="243" fill="#000" font-size="12.4">Dia</text><text x="71 75 80" y="243" fill="#000" font-size="12.4">tsa</text><text x="107 111" y="243" fill="#000" font-size="12.4">ro</text><text x="146 153" y="243" fill="#000" font-size="12.4">vy</text><text x="180 183" y="243" fill="#000" font-size="12.4">fa</text><text x="227 236" y="243" fill="#000" font-size="12.4">mi</text><text x="250 257" y="243" fill="#000" font-size="12.4">ha</text><text x="276 280" y="243" fill="#000" font-size="12.4">fy</text><text x="304 311 317" y="243" fill="#000" font-size="12.4">vao</text><text x="364 371" y="243" fill="#000" font-size="12.4">ha</text><text x="404 411" y="243" fill="#000" font-size="12.4">hi</text><text x="444 448" y="243" fill="#000" font-size="12.4">ta</text><text x="471 477 483" y="243" fill="#000" font-size="12.4">soa</text><text x="33 41" y="259" fill="#000" font-size="12.4">No</text><text x="80" y="259" fill="#000" font-size="12.4">o</text><text x="100 109 115 121" y="259" fill="#000" font-size="12.4">men'</text><text x="146 153" y="259" fill="#000" font-size="12.4">ny</text><text x="173 180 187" y="259" fill="#000" font-size="12.4">Tom</text><text x="222 229" y="259" fill="#000" font-size="12.4">po</text><text x="251 259" y="259" fill="#000" font-size="12.4">Ti</text><text x="278" y="259" fill="#000" font-size="12.4">a</text><text x="302 306 312 319" y="259" fill="#000" font-size="12.4">raha</text><text x="364 368" y="259" fill="#000" font-size="12.4">ta</text><text x="401 408 411" y="259" fill="#000" font-size="12.4">hia</text><text x="438 444 451 455 470 477 482" y="259" fill="#000" font-size="12.4">nyIanao</text><text x="38" y="279" fill="#000" font-size="12.4">s</text><text x="57 65 72 78 90" y="279" fill="#000" font-size="12.4">:-.s|</text><text x="109" y="279" fill="#000" font-size="12.4">s</text><text x="132" y="279" fill="#000" font-size="12.4">:</text><text x="151" y="279" fill="#000" font-size="12.4">f</text><text x="180 200" y="279" fill="#000" font-size="12.4">m:</text><text x="214 220 226" y="279" fill="#000" font-size="12.4">-.r</text><text x="242 253 267 278 281" y="279" fill="#000" font-size="12.4">|d:t,</text><text x="302 305 311 314 320 322" y="279" fill="#000" font-size="12.4">l,.,l,</text><text x="337 348 354 357 362 365 371 374 386" y="279" fill="#000" font-size="12.4">:si,.,l,|</text><text x="407" y="279" fill="#000" font-size="12.4">l</text><text x="429" y="279" fill="#000" font-size="12.4">:</text><text x="446" y="279" fill="#000" font-size="12.4">s</text><text x="478" y="279" fill="#000" font-size="12.4">f</text><text x="494 506" y="279" fill="#000" font-size="12.4">:-</text><text x="521 532 545" y="279" fill="#000" font-size="12.4">|-:</text><text x="37" y="295" fill="#000" font-size="12.4">d</text><text x="57 65 72 78 90" y="295" fill="#000" font-size="12.4">:-.d|</text><text x="109" y="295" fill="#000" font-size="12.4">d</text><text x="132" y="295" fill="#000" font-size="12.4">:</text><text x="151" y="295" fill="#000" font-size="12.4">r</text><text x="181" y="295" fill="#000" font-size="12.4">d</text><text x="200 213 220 225 229" y="295" fill="#000" font-size="12.4">:-.t,</text><text x="242 253 256 267 277 282" y="295" fill="#000" font-size="12.4">|l,:s,</text><text x="301 305 311 314 320 323" y="295" fill="#000" font-size="12.4">f,.,f,</text><text x="337 350 354 360 362 368 372" y="295" fill="#000" font-size="12.4">:f,.,f,</text><text x="386" y="295" fill="#000" font-size="12.4">|</text><text x="406 409" y="295" fill="#000" font-size="12.4">l,</text><text x="429" y="295" fill="#000" font-size="12.4">:</text><text x="444 451" y="295" fill="#000" font-size="12.4">di</text><text x="478" y="295" fill="#000" font-size="12.4">r</text><text x="494 506" y="295" fill="#000" font-size="12.4">:-</text><text x="521 532 545" y="295" fill="#000" font-size="12.4">|-:</text><text x="36" y="310" fill="#000" font-size="12.4">m</text><text x="57 64 71 77 90" y="310" fill="#000" font-size="12.4">:-.m|</text><text x="108" y="310" fill="#000" font-size="12.4">m</text><text x="132" y="310" fill="#000" font-size="12.4">:</text><text x="151" y="310" fill="#000" font-size="12.4">l</text><text x="181" y="310" fill="#000" font-size="12.4">s</text><text x="200" y="310" fill="#000" font-size="12.4">:</text><text x="214 220 226" y="310" fill="#000" font-size="12.4">-.f</text><text x="242 252 267 279" y="310" fill="#000" font-size="12.4">|m:r</text><text x="301 311 314 320" y="310" fill="#000" font-size="12.4">d.,d</text><text x="337 350 354 360 362 368" y="310" fill="#000" font-size="12.4">:t,.,d</text><text x="386" y="310" fill="#000" font-size="12.4">|</text><text x="407" y="310" fill="#000" font-size="12.4">f</text><text x="429" y="310" fill="#000" font-size="12.4">:</text><text x="446" y="310" fill="#000" font-size="12.4">s</text><text x="479" y="310" fill="#000" font-size="12.4">l</text><text x="494 506" y="310" fill="#000" font-size="12.4">:-</text><text x="521 532 545" y="310" fill="#000" font-size="12.4">|-:</text><text x="37" y="325" fill="#000" font-size="12.4">d</text><text x="57 65 72 78 90" y="325" fill="#000" font-size="12.4">:-.d|</text><text x="109" y="325" fill="#000" font-size="12.4">d</text><text x="132" y="325" fill="#000" font-size="12.4">:</text><text x="149" y="325" fill="#000" font-size="12.4">d</text><text x="181" y="325" fill="#000" font-size="12.4">d</text><text x="200 213 220 225" y="325" fill="#000" font-size="12.4">:-.d</text><text x="242 253 267 275 283" y="325" fill="#000" font-size="12.4">|d:m,</text><text x="301 305 311 314 320 323" y="325" fill="#000" font-size="12.4">f,.,f,</text><text x="337 350 354 360 362 368 372" y="325" fill="#000" font-size="12.4">:f,.,f,</text><text x="386" y="325" fill="#000" font-size="12.4">|</text><text x="406 409" y="325" fill="#000" font-size="12.4">l,</text><text x="429" y="325" fill="#000" font-size="12.4">:</text><text x="445" y="325" fill="#000" font-size="12.4">m</text><text x="478" y="325" fill="#000" font-size="12.4">r</text><text x="494 506" y="325" fill="#000" font-size="12.4">:-</text><text x="521 532 545" y="325" fill="#000" font-size="12.4">|-:</text><text x="28 37 43" y="341" fill="#000" font-size="12.4">NyA</text><text x="67 74 80" y="341" fill="#000" font-size="12.4">dya</text><text x="105 109 113" y="341" fill="#000" font-size="12.4">tre</text><text x="146 153" y="341" fill="#000" font-size="12.4">ha</text><text x="175 181 187" y="341" fill="#000" font-size="12.4">nao</text><text x="222 226 232" y="341" fill="#000" font-size="12.4">tsy</text><text x="248 257" y="341" fill="#000" font-size="12.4">mo</text><text x="276 280" y="341" fill="#000" font-size="12.4">ra</text><text x="302 306 312 319" y="341" fill="#000" font-size="12.4">tena</text><text x="352 358 363 367" y="341" fill="#000" font-size="12.4">saro</text><text x="402 406 410" y="341" fill="#000" font-size="12.4">tra</text><text x="444 448" y="341" fill="#000" font-size="12.4">to</text><text x="471 477 483" y="341" fill="#000" font-size="12.4">koa</text><text x="27 35 40 47" y="357" fill="#000" font-size="12.4">Raha</text><text x="77 80" y="357" fill="#000" font-size="12.4">ta</text><text x="109 113" y="357" fill="#000" font-size="12.4">fi</text><text x="148 152" y="357" fill="#000" font-size="12.4">ta</text><text x="183" y="357" fill="#000" font-size="12.4">i</text><text x="227" y="357" fill="#000" font-size="12.4">a</text><text x="250 257" y="357" fill="#000" font-size="12.4">na</text><text x="278" y="357" fill="#000" font-size="12.4">o</text><text x="302 309 312 318" y="357" fill="#000" font-size="12.4">hisy</text><text x="351 358 363 368" y="357" fill="#000" font-size="12.4">haza</text><text x="402 409" y="357" fill="#000" font-size="12.4">va</text><text x="443 450" y="357" fill="#000" font-size="12.4">na</text><text x="474 481" y="357" fill="#000" font-size="12.4">be</text><text x="33 41" y="374" fill="#000" font-size="12.4">Ho</text><text x="77 80" y="374" fill="#000" font-size="12.4">fa</text><text x="107 114" y="374" fill="#000" font-size="12.4">ni</text><text x="148 151" y="374" fill="#000" font-size="12.4">lo</text><text x="174 182 188" y="374" fill="#000" font-size="12.4">man</text><text x="219 225 229 235" y="374" fill="#000" font-size="12.4">dra-</text><text x="249 258" y="374" fill="#000" font-size="12.4">ma</text><text x="350 354 360 366 370" y="374" fill="#000" font-size="12.4">tanta</text><text x="402 409" y="374" fill="#000" font-size="12.4">na</text><text x="442 449" y="374" fill="#000" font-size="12.4">ny</text><text x="472 479 481" y="374" fill="#000" font-size="12.4">dia</text><text x="38 40" y="394" fill="#000" font-size="12.4">l,</text><text x="57 65 72 78 81 90" y="394" fill="#000" font-size="12.4">:-.t,|</text><text x="109" y="394" fill="#000" font-size="12.4">d</text><text x="132" y="394" fill="#000" font-size="12.4">:</text><text x="150 153" y="394" fill="#000" font-size="12.4">l,</text><text x="180 186" y="394" fill="#000" font-size="12.4">s,</text><text x="200 213 220 225" y="394" fill="#000" font-size="12.4">:-.d</text><text x="242 253 267 279" y="394" fill="#000" font-size="12.4">|s:f</text><text x="300 312 315 321 324 337" y="394" fill="#000" font-size="12.4">m.,ri:</text><text x="351 362 365 371" y="394" fill="#000" font-size="12.4">m.,f</text><text x="386" y="394" fill="#000" font-size="12.4">|</text><text x="404" y="394" fill="#000" font-size="12.4">m</text><text x="429" y="394" fill="#000" font-size="12.4">:</text><text x="447" y="394" fill="#000" font-size="12.4">r</text><text x="477" y="394" fill="#000" font-size="12.4">d</text><text x="494 506" y="394" fill="#000" font-size="12.4">:-</text><text x="521 532 545" y="394" fill="#000" font-size="12.4">|-:</text><text x="37 40" y="409" fill="#000" font-size="12.4">f,</text><text x="57 64 71 77 82 90" y="409" fill="#000" font-size="12.4">:-.s,|</text><text x="109 112" y="409" fill="#000" font-size="12.4">l,</text><text x="132" y="409" fill="#000" font-size="12.4">:</text><text x="148 152 155" y="409" fill="#000" font-size="12.4">fi,</text><text x="180 186" y="409" fill="#000" font-size="12.4">s,</text><text x="200 212 219 224 230 242 253 267 278 280" y="409" fill="#000" font-size="12.4">:-.s,|d:l,</text><text x="299 304 310 313 319 322 325 337 349 355 361 363 369" y="409" fill="#000" font-size="12.4">s,.,fi,:s,.,d</text><text x="386" y="409" fill="#000" font-size="12.4">|</text><text x="405" y="409" fill="#000" font-size="12.4">d</text><text x="429" y="409" fill="#000" font-size="12.4">:</text><text x="446 450" y="409" fill="#000" font-size="12.4">t,</text><text x="476 481 494 506" y="409" fill="#000" font-size="12.4">s,:-</text><text x="521 532 545" y="409" fill="#000" font-size="12.4">|-:</text><text x="37" y="424" fill="#000" font-size="12.4">d</text><text x="57 64 71 77 90" y="424" fill="#000" font-size="12.4">:-.m|</text><text x="109 113" y="424" fill="#000" font-size="12.4">ri</text><text x="132" y="424" fill="#000" font-size="12.4">:</text><text x="149 153" y="424" fill="#000" font-size="12.4">ri</text><text x="180 200 212 219 224 242 252 267 279" y="424" fill="#000" font-size="12.4">m:-.m|m:r</text><text x="301 311 314 320" y="424" fill="#000" font-size="12.4">d.,d</text><text x="337" y="424" fill="#000" font-size="12.4">:</text><text x="353 361 364 370" y="424" fill="#000" font-size="12.4">s.,l</text><text x="386" y="424" fill="#000" font-size="12.4">|</text><text x="406" y="424" fill="#000" font-size="12.4">s</text><text x="429" y="424" fill="#000" font-size="12.4">:</text><text x="447" y="424" fill="#000" font-size="12.4">f</text><text x="476 494 506" y="424" fill="#000" font-size="12.4">m:-</text><text x="521 532 545" y="424" fill="#000" font-size="12.4">|-:</text><text x="37 40" y="439" fill="#000" font-size="12.4">f,</text><text x="57 64 71 77 82 90" y="439" fill="#000" font-size="12.4">:-.s,|</text><text x="109 112" y="439" fill="#000" font-size="12.4">l,</text><text x="132" y="439" fill="#000" font-size="12.4">:</text><text x="149 153" y="439" fill="#000" font-size="12.4">t,</text><text x="181" y="439" fill="#000" font-size="12.4">d</text><text x="200 213 220 225 228" y="439" fill="#000" font-size="12.4">:-.l,</text><text x="242 250 259 267 278 281" y="439" fill="#000" font-size="12.4">|m,:f,</text><text x="300 305 311 314 320 325 337 348 354 360 362 368 374 386" y="439" fill="#000" font-size="12.4">s,.,s,:s,.,s,|</text><text x="404 410" y="439" fill="#000" font-size="12.4">s,</text><text x="429" y="439" fill="#000" font-size="12.4">:</text><text x="445 451" y="439" fill="#000" font-size="12.4">s,</text><text x="477" y="439" fill="#000" font-size="12.4">d</text><text x="494 506" y="439" fill="#000" font-size="12.4">:-</text><text x="521 532 545" y="439" fill="#000" font-size="12.4">|-:</text><text x="33 41" y="455" fill="#000" font-size="12.4">Ne</text><text x="77 80" y="455" fill="#000" font-size="12.4">fa</text><text x="103 107 114" y="455" fill="#000" font-size="12.4">toy</text><text x="144 146 149 155" y="455" fill="#000" font-size="12.4">'lay</text><text x="177 180 186" y="455" fill="#000" font-size="12.4">tao</text><text x="226" y="455" fill="#000" font-size="12.4">E</text><text x="249 256" y="455" fill="#000" font-size="12.4">do</text><text x="351 358 363 367" y="455" fill="#000" font-size="12.4">hery</text><text x="397 405 412" y="455" fill="#000" font-size="12.4">mom</text><text x="441 447 453" y="455" fill="#000" font-size="12.4">baa</text><text x="470 477 482" y="455" fill="#000" font-size="12.4">nao</text><text x="28 37 43 49" y="472" fill="#000" font-size="12.4">Nyai</text><text x="68 73 76 82" y="472" fill="#000" font-size="12.4">zin-</text><text x="108 114" y="472" fill="#000" font-size="12.4">ki</text><text x="145 149 153" y="472" fill="#000" font-size="12.4">tro</text><text x="179 184" y="472" fill="#000" font-size="12.4">ka</text><text x="222 229" y="472" fill="#000" font-size="12.4">ho</text><text x="252 255" y="472" fill="#000" font-size="12.4">la</text><text x="278" y="472" fill="#000" font-size="12.4">o</text><text x="302 306 312 319 321" y="472" fill="#000" font-size="12.4">tapi-</text><text x="352 359 364 367" y="472" fill="#000" font-size="12.4">dala</text><text x="402 409" y="472" fill="#000" font-size="12.4">na</text><text x="443 450" y="472" fill="#000" font-size="12.4">ha</text><text x="469 472 478 484" y="472" fill="#000" font-size="12.4">leha</text><text x="30 32 39 44" y="488" fill="#000" font-size="12.4">'Lay</text><text x="80 83" y="488" fill="#000" font-size="12.4">fi</text><text x="102 109 116" y="488" fill="#000" font-size="12.4">noa</text><text x="146 153" y="488" fill="#000" font-size="12.4">na</text><text x="179 184" y="488" fill="#000" font-size="12.4">ao</text><text x="227" y="488" fill="#000" font-size="12.4">a</text><text x="250 257" y="488" fill="#000" font-size="12.4">na</text><text x="345 352 358 367 374" y="488" fill="#000" font-size="12.4">naodo</text><text x="402 406 409" y="488" fill="#000" font-size="12.4">ria</text><text x="442 449" y="488" fill="#000" font-size="12.4">do</text><text x="474 478 481" y="488" fill="#000" font-size="12.4">ria</text><text x="36" y="508" fill="#000" font-size="12.4">m</text><text x="57 64 71 77 90 99 102 108 111 117 132 140 147 150 156" y="508" fill="#000" font-size="12.4">:-.m|ri.,m:f.,m</text><text x="181" y="508" fill="#000" font-size="12.4">d</text><text x="200" y="508" fill="#000" font-size="12.4">:</text><text x="220" y="508" fill="#000" font-size="12.4">-</text><text x="242 253 267 279" y="508" fill="#000" font-size="12.4">|d:-</text><text x="310" y="508" fill="#000" font-size="12.4">d</text><text x="337" y="508" fill="#000" font-size="12.4">:</text><text x="353 360 365 369" y="508" fill="#000" font-size="12.4">-.t,</text><text x="386 398 404 407 413" y="508" fill="#000" font-size="12.4">|r.,d</text><text x="429 438 441 447 450 456 459" y="508" fill="#000" font-size="12.4">:t,.,l,</text><text x="476 481 494 506" y="508" fill="#000" font-size="12.4">s,:-</text><text x="521 532 545" y="508" fill="#000" font-size="12.4">|-:</text><text x="37" y="523" fill="#000" font-size="12.4">d</text><text x="57 65 72 78 90 100 109 112 118 132 140 150 153 159" y="523" fill="#000" font-size="12.4">:-.d|d.,d:d.,d</text><text x="180 186" y="523" fill="#000" font-size="12.4">s,</text><text x="200 210 221 224 230 242 252 258 267 275 279 284" y="523" fill="#000" font-size="12.4">:m.,f|s,:ta,</text><text x="311 314" y="523" fill="#000" font-size="12.4">l,</text><text x="337" y="523" fill="#000" font-size="12.4">:</text><text x="352 359 364 370" y="523" fill="#000" font-size="12.4">-.s,</text><text x="386 397 400 406 409 415 418 429 436 441 447 450 456 460" y="523" fill="#000" font-size="12.4">|t,.,l,:s,.,f,</text><text x="474 482 494 506" y="523" fill="#000" font-size="12.4">m,:-</text><text x="521 532 545" y="523" fill="#000" font-size="12.4">|-:</text><text x="38" y="538" fill="#000" font-size="12.4">s</text><text x="57 65 72 78 90 100 104 110 113 119 132 142 148 151 157" y="538" fill="#000" font-size="12.4">:-.s|fi.,s:l.,s</text><text x="180 200 211 220 223 229 242 252 267 278" y="538" fill="#000" font-size="12.4">m:d.,r|m:s</text><text x="312" y="538" fill="#000" font-size="12.4">f</text><text x="337" y="538" fill="#000" font-size="12.4">:</text><text x="352 359 364" y="538" fill="#000" font-size="12.4">-.m</text><text x="386" y="538" fill="#000" font-size="12.4">|</text><text x="400 406 409 415" y="538" fill="#000" font-size="12.4">f.,f</text><text x="429 438 449 452 458" y="538" fill="#000" font-size="12.4">:m.,r</text><text x="477" y="538" fill="#000" font-size="12.4">d</text><text x="494 506" y="538" fill="#000" font-size="12.4">:-</text><text x="521 532 545" y="538" fill="#000" font-size="12.4">|-:</text><text x="37" y="554" fill="#000" font-size="12.4">d</text><text x="57 65 72 78 90 100 109 112 118 132 140 150 153 159" y="554" fill="#000" font-size="12.4">:-.d|d.,d:d.,d</text><text x="181" y="554" fill="#000" font-size="12.4">d</text><text x="200" y="554" fill="#000" font-size="12.4">:</text><text x="220" y="554" fill="#000" font-size="12.4">-</text><text x="242 252 267 275 283" y="554" fill="#000" font-size="12.4">|m:m,</text><text x="310 314" y="554" fill="#000" font-size="12.4">f,</text><text x="337" y="554" fill="#000" font-size="12.4">:</text><text x="352 359 361 367 371" y="554" fill="#000" font-size="12.4">-.,f,</text><text x="386 397 401 406 409 415 419 429 437 441 446 449 455 459" y="554" fill="#000" font-size="12.4">|f,.,f,:f,.,f,</text><text x="477" y="554" fill="#000" font-size="12.4">d</text><text x="494 506" y="554" fill="#000" font-size="12.4">:-</text><text x="521 532 545" y="554" fill="#000" font-size="12.4">|-:</text><text x="28 39 46" y="570" fill="#000" font-size="12.4">Mbo</text><text x="78 80 96 102 109 115 121" y="570" fill="#000" font-size="12.4">lahoavy</text><text x="139 145 152 160" y="570" fill="#000" font-size="12.4">nyma</text><text x="179 182 188" y="570" fill="#000" font-size="12.4">rai</text><text x="250 257" y="570" fill="#000" font-size="12.4">na</text><text x="302 304 312 318" y="570" fill="#000" font-size="12.4">'Zay</text><text x="362 371 392 396 402 409 416 420" y="570" fill="#000" font-size="12.4">mitondra</text><text x="438 444 450 454" y="570" fill="#000" font-size="12.4">hery</text><text x="470 477 482" y="570" fill="#000" font-size="12.4">vao</text><text x="206 208 211 217 223 232" y="586" fill="#000" font-size="12.4">'layma</text><text x="250 254 260" y="586" fill="#000" font-size="12.4">rai</text><text x="275 281" y="586" fill="#000" font-size="12.4">na</text><text x="37 40" y="606" fill="#000" font-size="12.4">t,</text><text x="57 65 72 78 90" y="606" fill="#000" font-size="12.4">:-.d|</text><text x="110" y="606" fill="#000" font-size="12.4">r</text><text x="132" y="606" fill="#000" font-size="12.4">:</text><text x="148 154" y="606" fill="#000" font-size="12.4">s,</text><text x="181" y="606" fill="#000" font-size="12.4">d</text><text x="200" y="606" fill="#000" font-size="12.4">:</text><text x="214 220 226" y="606" fill="#000" font-size="12.4">-.r</text><text x="242 252 267 278" y="606" fill="#000" font-size="12.4">|m:d</text><text x="304 311 314 320" y="606" fill="#000" font-size="12.4">r.,r</text><text x="337" y="606" fill="#000" font-size="12.4">:</text><text x="352 359 361 367" y="606" fill="#000" font-size="12.4">r.,d</text><text x="386" y="606" fill="#000" font-size="12.4">|</text><text x="405 409" y="606" fill="#000" font-size="12.4">t,</text><text x="429" y="606" fill="#000" font-size="12.4">:</text><text x="446 449" y="606" fill="#000" font-size="12.4">l,</text><text x="476 481 494 506" y="606" fill="#000" font-size="12.4">s,:-</text><text x="521 532 545" y="606" fill="#000" font-size="12.4">|-:</text><text x="36 41" y="621" fill="#000" font-size="12.4">s,</text><text x="57 65 72 78 81 90" y="621" fill="#000" font-size="12.4">:-.l,|</text><text x="109 113" y="621" fill="#000" font-size="12.4">t,</text><text x="132" y="621" fill="#000" font-size="12.4">:</text><text x="148 154" y="621" fill="#000" font-size="12.4">s,</text><text x="180 186" y="621" fill="#000" font-size="12.4">s,</text><text x="200 213 220 225 229" y="621" fill="#000" font-size="12.4">:-.t,</text><text x="242 253 267 278 280" y="621" fill="#000" font-size="12.4">|d:l,</text><text x="302 305 311 314 320 322" y="621" fill="#000" font-size="12.4">l,.,l,</text><text x="337" y="621" fill="#000" font-size="12.4">:</text><text x="351 354 360 362 368 371" y="621" fill="#000" font-size="12.4">l,.,l,</text><text x="386" y="621" fill="#000" font-size="12.4">|</text><text x="404 410" y="621" fill="#000" font-size="12.4">s,</text><text x="429" y="621" fill="#000" font-size="12.4">:</text><text x="444 448 451" y="621" fill="#000" font-size="12.4">fi,</text><text x="476 481 494 506" y="621" fill="#000" font-size="12.4">s,:-</text><text x="521 532 545" y="621" fill="#000" font-size="12.4">|-:</text><text x="39" y="636" fill="#000" font-size="12.4">r</text><text x="57 64 71 77 90" y="636" fill="#000" font-size="12.4">:-.m|</text><text x="110" y="636" fill="#000" font-size="12.4">f</text><text x="132" y="636" fill="#000" font-size="12.4">:</text><text x="151" y="636" fill="#000" font-size="12.4">r</text><text x="180 200" y="636" fill="#000" font-size="12.4">m:</text><text x="214 220 226" y="636" fill="#000" font-size="12.4">-.f</text><text x="242 253 267 277" y="636" fill="#000" font-size="12.4">|s:m</text><text x="301 305 311 314 320 323 337 349 353 359 361 367 386" y="636" fill="#000" font-size="12.4">fi.,fi:fi.,m|</text><text x="407" y="636" fill="#000" font-size="12.4">r</text><text x="429" y="636" fill="#000" font-size="12.4">:</text><text x="446" y="636" fill="#000" font-size="12.4">d</text><text x="477 481" y="636" fill="#000" font-size="12.4">t,</text><text x="494 506" y="636" fill="#000" font-size="12.4">:-</text><text x="521 532 545" y="636" fill="#000" font-size="12.4">|-:</text><text x="36 41" y="652" fill="#000" font-size="12.4">s,</text><text x="57 64 71 77 82 90" y="652" fill="#000" font-size="12.4">:-.s,|</text><text x="108 114" y="652" fill="#000" font-size="12.4">s,</text><text x="132" y="652" fill="#000" font-size="12.4">:</text><text x="148 154" y="652" fill="#000" font-size="12.4">s,</text><text x="181" y="652" fill="#000" font-size="12.4">d</text><text x="200 213 220 225" y="652" fill="#000" font-size="12.4">:-.d</text><text x="242 253 267 278 280" y="652" fill="#000" font-size="12.4">|d:l,</text><text x="304 311 314 320" y="652" fill="#000" font-size="12.4">r.,r</text><text x="337" y="652" fill="#000" font-size="12.4">:</text><text x="353 360 362 368" y="652" fill="#000" font-size="12.4">r.,r</text><text x="386" y="652" fill="#000" font-size="12.4">|</text><text x="407" y="652" fill="#000" font-size="12.4">r</text><text x="429" y="652" fill="#000" font-size="12.4">:</text><text x="447" y="652" fill="#000" font-size="12.4">r</text><text x="476 481 494 506" y="652" fill="#000" font-size="12.4">s,:-</text><text x="521 532 545" y="652" fill="#000" font-size="12.4">|-:</text><text x="33 40" y="668" fill="#000" font-size="12.4">Ry</text><text x="68 77 83" y="668" fill="#000" font-size="12.4">mpi</text><text x="105 111" y="668" fill="#000" font-size="12.4">am</text><text x="148 155" y="668" fill="#000" font-size="12.4">bi</text><text x="179 185" y="668" fill="#000" font-size="12.4">na</text><text x="221 230 233" y="668" fill="#000" font-size="12.4">mia</text><text x="251 255" y="668" fill="#000" font-size="12.4">re</text><text x="275 281" y="668" fill="#000" font-size="12.4">na</text><text x="301 307 316 319" y="668" fill="#000" font-size="12.4">kain</text><text x="343 350 356 368 375" y="668" fill="#000" font-size="12.4">gaony</text><text x="403 408" y="668" fill="#000" font-size="12.4">zo</text><text x="444 451" y="668" fill="#000" font-size="12.4">vi</text><text x="470 477 482" y="668" fill="#000" font-size="12.4">nao</text><text x="38" y="688" fill="#000" font-size="12.4">s</text><text x="57 65 72 78 90" y="688" fill="#000" font-size="12.4">:-.s|</text><text x="109" y="688" fill="#000" font-size="12.4">s</text><text x="132" y="688" fill="#000" font-size="12.4">:</text><text x="151" y="688" fill="#000" font-size="12.4">f</text><text x="180 200" y="688" fill="#000" font-size="12.4">m:</text><text x="214 220 226" y="688" fill="#000" font-size="12.4">-.r</text><text x="242 253 267 278 281" y="688" fill="#000" font-size="12.4">|d:t,</text><text x="302 305 311 314 320 322" y="688" fill="#000" font-size="12.4">l,.,l,</text><text x="337 348 354 357 362 365 371 374 386" y="688" fill="#000" font-size="12.4">:si,.,l,|</text><text x="407" y="688" fill="#000" font-size="12.4">l</text><text x="429" y="688" fill="#000" font-size="12.4">:</text><text x="446" y="688" fill="#000" font-size="12.4">s</text><text x="478" y="688" fill="#000" font-size="12.4">f</text><text x="494 506" y="688" fill="#000" font-size="12.4">:-</text><text x="521 532 545" y="688" fill="#000" font-size="12.4">|-:</text><text x="37" y="703" fill="#000" font-size="12.4">d</text><text x="57 65 72 78 90" y="703" fill="#000" font-size="12.4">:-.d|</text><text x="109" y="703" fill="#000" font-size="12.4">d</text><text x="132" y="703" fill="#000" font-size="12.4">:</text><text x="150 153" y="703" fill="#000" font-size="12.4">l,</text><text x="180 186" y="703" fill="#000" font-size="12.4">s,</text><text x="200 212 219 224 230 242 253 256 267 277 282" y="703" fill="#000" font-size="12.4">:-.s,|l,:s,</text><text x="301 305 311 314 320 323" y="703" fill="#000" font-size="12.4">f,.,f,</text><text x="337 350 354 360 362 368 372" y="703" fill="#000" font-size="12.4">:f,.,f,</text><text x="386" y="703" fill="#000" font-size="12.4">|</text><text x="406 409" y="703" fill="#000" font-size="12.4">l,</text><text x="429" y="703" fill="#000" font-size="12.4">:</text><text x="444 451" y="703" fill="#000" font-size="12.4">di</text><text x="478" y="703" fill="#000" font-size="12.4">r</text><text x="494 506" y="703" fill="#000" font-size="12.4">:-</text><text x="521 532 545" y="703" fill="#000" font-size="12.4">|-:</text><text x="36" y="718" fill="#000" font-size="12.4">m</text><text x="57 64 71 77 90" y="718" fill="#000" font-size="12.4">:-.m|</text><text x="108" y="718" fill="#000" font-size="12.4">m</text><text x="132" y="718" fill="#000" font-size="12.4">:</text><text x="151" y="718" fill="#000" font-size="12.4">l</text><text x="181" y="718" fill="#000" font-size="12.4">s</text><text x="200" y="718" fill="#000" font-size="12.4">:</text><text x="214 220 226" y="718" fill="#000" font-size="12.4">-.f</text><text x="242 252 267 279" y="718" fill="#000" font-size="12.4">|m:r</text><text x="301 311 314 320" y="718" fill="#000" font-size="12.4">d.,d</text><text x="337 350 354 360 362 368" y="718" fill="#000" font-size="12.4">:t,.,d</text><text x="386" y="718" fill="#000" font-size="12.4">|</text><text x="407" y="718" fill="#000" font-size="12.4">f</text><text x="429" y="718" fill="#000" font-size="12.4">:</text><text x="446" y="718" fill="#000" font-size="12.4">s</text><text x="479" y="718" fill="#000" font-size="12.4">l</text><text x="494 506" y="718" fill="#000" font-size="12.4">:-</text><text x="521 532 545" y="718" fill="#000" font-size="12.4">|-:</text><text x="37" y="734" fill="#000" font-size="12.4">d</text><text x="57 65 72 78 90" y="734" fill="#000" font-size="12.4">:-.d|</text><text x="109" y="734" fill="#000" font-size="12.4">d</text><text x="132" y="734" fill="#000" font-size="12.4">:</text><text x="149" y="734" fill="#000" font-size="12.4">d</text><text x="181" y="734" fill="#000" font-size="12.4">d</text><text x="200 213 220 225" y="734" fill="#000" font-size="12.4">:-.d</text><text x="242 253 267 275 283" y="734" fill="#000" font-size="12.4">|d:m,</text><text x="301 305 311 314 320 323" y="734" fill="#000" font-size="12.4">f,.,f,</text><text x="337 348 357 362 365 371 375 386" y="734" fill="#000" font-size="12.4">:m,.,f,|</text><text x="406 409" y="734" fill="#000" font-size="12.4">l,</text><text x="429" y="734" fill="#000" font-size="12.4">:</text><text x="445" y="734" fill="#000" font-size="12.4">m</text><text x="478" y="734" fill="#000" font-size="12.4">r</text><text x="494 506" y="734" fill="#000" font-size="12.4">:-</text><text x="521 532 545" y="734" fill="#000" font-size="12.4">|-:</text><text x="31 40" y="750" fill="#000" font-size="12.4">Am</text><text x="74 80" y="750" fill="#000" font-size="12.4">ba</text><text x="107 111" y="750" fill="#000" font-size="12.4">ra</text><text x="149" y="750" fill="#000" font-size="12.4">o</text><text x="180 183" y="750" fill="#000" font-size="12.4">fa</text><text x="225 232" y="750" fill="#000" font-size="12.4">ny</text><text x="252 258" y="750" fill="#000" font-size="12.4">ai</text><text x="277 281 294 300 306 309 316 322 326" y="750" fill="#000" font-size="12.4">zinaindro</text><text x="355 360 364" y="750" fill="#000" font-size="12.4">efa</text><text x="404 407" y="750" fill="#000" font-size="12.4">la</text><text x="443 449" y="750" fill="#000" font-size="12.4">sa</text><text x="475 479" y="750" fill="#000" font-size="12.4">re</text><text x="38 40" y="770" fill="#000" font-size="12.4">l,</text><text x="57 65 72 78 81 90" y="770" fill="#000" font-size="12.4">:-.t,|</text><text x="109" y="770" fill="#000" font-size="12.4">d</text><text x="132" y="770" fill="#000" font-size="12.4">:</text><text x="150 153" y="770" fill="#000" font-size="12.4">l,</text><text x="180 186" y="770" fill="#000" font-size="12.4">s,</text><text x="200 213 220 225" y="770" fill="#000" font-size="12.4">:-.d</text><text x="242 253 267 279" y="770" fill="#000" font-size="12.4">|s:f</text><text x="300 312 315 321 324 337" y="770" fill="#000" font-size="12.4">m.,ri:</text><text x="351 362 365 371" y="770" fill="#000" font-size="12.4">m.,f</text><text x="386" y="770" fill="#000" font-size="12.4">|</text><text x="404" y="770" fill="#000" font-size="12.4">m</text><text x="429" y="770" fill="#000" font-size="12.4">:</text><text x="447" y="770" fill="#000" font-size="12.4">r</text><text x="477" y="770" fill="#000" font-size="12.4">d</text><text x="494 506" y="770" fill="#000" font-size="12.4">:-</text><text x="521 532 545" y="770" fill="#000" font-size="12.4">|-:</text><text x="37 40" y="785" fill="#000" font-size="12.4">f,</text><text x="57 64 71 77 82 90" y="785" fill="#000" font-size="12.4">:-.s,|</text><text x="109 112" y="785" fill="#000" font-size="12.4">l,</text><text x="132" y="785" fill="#000" font-size="12.4">:</text><text x="148 152 155" y="785" fill="#000" font-size="12.4">fi,</text><text x="180 186" y="785" fill="#000" font-size="12.4">s,</text><text x="200 212 219 224 230 242 253 267 278 280" y="785" fill="#000" font-size="12.4">:-.s,|d:l,</text><text x="299 304 310 313 319 322 325 337 349 355 361 363 369" y="785" fill="#000" font-size="12.4">s,.,fi,:s,.,d</text><text x="386" y="785" fill="#000" font-size="12.4">|</text><text x="405" y="785" fill="#000" font-size="12.4">d</text><text x="429" y="785" fill="#000" font-size="12.4">:</text><text x="446 450" y="785" fill="#000" font-size="12.4">t,</text><text x="476 481 494 506" y="785" fill="#000" font-size="12.4">s,:-</text><text x="521 532 545" y="785" fill="#000" font-size="12.4">|-:</text><text x="37" y="800" fill="#000" font-size="12.4">d</text><text x="57 64 71 77 90" y="800" fill="#000" font-size="12.4">:-.m|</text><text x="109 113" y="800" fill="#000" font-size="12.4">ri</text><text x="132" y="800" fill="#000" font-size="12.4">:</text><text x="149 153" y="800" fill="#000" font-size="12.4">ri</text><text x="180 200 212 219 224 242 252 267 279" y="800" fill="#000" font-size="12.4">m:-.m|m:r</text><text x="301 311 314 320" y="800" fill="#000" font-size="12.4">d.,d</text><text x="337" y="800" fill="#000" font-size="12.4">:</text><text x="353 361 364 370" y="800" fill="#000" font-size="12.4">s.,l</text><text x="386" y="800" fill="#000" font-size="12.4">|</text><text x="406" y="800" fill="#000" font-size="12.4">s</text><text x="429" y="800" fill="#000" font-size="12.4">:</text><text x="447" y="800" fill="#000" font-size="12.4">f</text><text x="476 494 506" y="800" fill="#000" font-size="12.4">m:-</text><text x="521 532 545" y="800" fill="#000" font-size="12.4">|-:</text><text x="37 40" y="816" fill="#000" font-size="12.4">f,</text><text x="57 64 71 77 82 90" y="816" fill="#000" font-size="12.4">:-.s,|</text><text x="109 112" y="816" fill="#000" font-size="12.4">l,</text><text x="132" y="816" fill="#000" font-size="12.4">:</text><text x="149 153" y="816" fill="#000" font-size="12.4">t,</text><text x="181" y="816" fill="#000" font-size="12.4">d</text><text x="200 213 220 225 228" y="816" fill="#000" font-size="12.4">:-.l,</text><text x="242 250 259 267 278 281" y="816" fill="#000" font-size="12.4">|m,:f,</text><text x="300 305 311 314 320 325 337 348 354 360 362 368 374 386" y="816" fill="#000" font-size="12.4">s,.,s,:s,.,s,|</text><text x="404 410" y="816" fill="#000" font-size="12.4">s,</text><text x="429" y="816" fill="#000" font-size="12.4">:</text><text x="445 451" y="816" fill="#000" font-size="12.4">s,</text><text x="477" y="816" fill="#000" font-size="12.4">d</text><text x="494 506" y="816" fill="#000" font-size="12.4">:-</text><text x="521 532 545" y="816" fill="#000" font-size="12.4">|-:</text><text x="37" y="832" fill="#000" font-size="12.4">E</text><text x="77 80" y="832" fill="#000" font-size="12.4">fa</text><text x="103 107 114" y="832" fill="#000" font-size="12.4">ton</text><text x="146 153" y="832" fill="#000" font-size="12.4">ga</text><text x="178 184" y="832" fill="#000" font-size="12.4">ny</text><text x="224 233" y="832" fill="#000" font-size="12.4">ma</text><text x="250 254 260" y="832" fill="#000" font-size="12.4">rai</text><text x="275 281" y="832" fill="#000" font-size="12.4">na</text><text x="302 309 312 318" y="832" fill="#000" font-size="12.4">hisy</text><text x="351 358 363 368" y="832" fill="#000" font-size="12.4">haza</text><text x="402 409" y="832" fill="#000" font-size="12.4">va</text><text x="443 450" y="832" fill="#000" font-size="12.4">na</text><text x="474 481" y="832" fill="#000" font-size="12.4">be</text><text x="148 155 161 169 177 186 190 199 212 219 228 239 246 255 268 275 284 294 303 308 316 327 335 344 355 365 375 385 389 399 411 418 422 431" y="15" fill="#000" font-size="15.3" font-weight="bold">FF1.HIRAFANEVAFAHA-30TAONAN'NYFJKM</text><text x="279 282 292 299 308 317 323" y="374" fill="#000" font-size="12.4">tyhompi</text><text x="276 284 293 295 301 307 314 325" y="455" fill="#000" font-size="12.4">ma'LayMa</text><text x="276 280 289 296 302 311 318 323" y="488" fill="#000" font-size="12.4">tyhombaa</text></svg>